<?xml version="1.0" encoding="UTF-8" standalone="no"?>
<svg
   xmlns:dc="http://purl.org/dc/elements/1.1/"
   xmlns:cc="http://creativecommons.org/ns#"
   xmlns:rdf="http://www.w3.org/1999/02/22-rdf-syntax-ns#"
   xmlns:svg="http://www.w3.org/2000/svg"
   xmlns="http://www.w3.org/2000/svg"
   xmlns:sodipodi="http://sodipodi.sourceforge.net/DTD/sodipodi-0.dtd"
   xmlns:inkscape="http://www.inkscape.org/namespaces/inkscape"
   width="217.92963mm"
   height="41.973419mm"
   viewBox="0 0 217.92963 41.97342"
   version="1.1"
   id="svg8"
   inkscape:version="1.0.2 (e86c870879, 2021-01-15, custom)"
   sodipodi:docname="azusaw.svg">
  <defs
     id="defs2" />
  <sodipodi:namedview
     id="base"
     pagecolor="#ffffff"
     bordercolor="#666666"
     borderopacity="1.0"
     inkscape:pageopacity="0.0"
     inkscape:pageshadow="2"
     inkscape:zoom="0.9899495"
     inkscape:cx="485.14465"
     inkscape:cy="92.638068"
     inkscape:document-units="mm"
     inkscape:current-layer="text12"
     inkscape:document-rotation="0"
     showgrid="false"
     inkscape:window-width="1920"
     inkscape:window-height="1001"
     inkscape:window-x="-9"
     inkscape:window-y="-9"
     inkscape:window-maximized="1"
     inkscape:pagecheckerboard="true"
     fit-margin-top="5"
     fit-margin-left="5"
     fit-margin-right="5"
     fit-margin-bottom="5" />
  <metadata
     id="metadata5">
    <rdf:RDF>
      <cc:Work
         rdf:about="">
        <dc:format>image/svg+xml</dc:format>
        <dc:type
           rdf:resource="http://purl.org/dc/dcmitype/StillImage" />
        <dc:title></dc:title>
      </cc:Work>
    </rdf:RDF>
  </metadata>
  <g
     inkscape:label="レイヤー 1"
     inkscape:groupmode="layer"
     id="layer1"
     transform="translate(-83.714079,-57.095462)">
    <g
       aria-label="azusaw"
       id="text12"
       style="font-style:normal;font-variant:normal;font-weight:normal;font-stretch:normal;font-size:25.3158px;line-height:1.15;font-family:'MADE Waffle Soft';-inkscape-font-specification:'MADE Waffle Soft, Normal';font-variant-ligatures:normal;font-variant-caps:normal;font-variant-numeric:normal;font-variant-east-asian:normal;letter-spacing:0px;word-spacing:0px;fill:#ffffff;fill-opacity:1;stroke:none;stroke-width:0.632897">
      <path
         d="m 117.97799,72.233548 c -0.77612,-6.818772 -7.31771,-9.590631 -13.85929,-9.590631 -5.765469,0 -10.422192,1.995739 -12.307055,2.993607 -0.665247,0.277186 -0.665247,1.053306 -0.498934,1.496805 0.166317,0.443496 1.773988,4.434974 2.051174,4.989346 0.221748,0.498934 0.77612,0.720682 1.385929,0.498934 1.607678,-0.665247 4.767598,-1.884864 8.093826,-1.884864 3.60342,0 4.21323,2.051174 4.26866,3.71429 -2.27292,0.11087 -6.20896,0.277185 -8.980818,0.665247 -4.268663,0.665247 -8.869948,3.714291 -8.869948,10.089566 0,7.428581 7.151395,8.315577 8.869948,8.315577 3.104478,0 6.985088,-0.997871 8.980818,-3.15992 v 1.108743 c 0,0.77612 0.60981,1.38593 1.38593,1.38593 h 3.32623 4.82303 c 0.77612,0 1.38594,-0.60981 1.38594,-1.38593 V 73.564042 c 0,-0.443499 0,-0.886996 -0.0554,-1.330494 z m -14.63541,13.859293 c -3.547982,0 -4.213229,-3.547978 -2.10662,-5.155656 1.66312,-1.330492 5.87634,-1.108743 5.87634,-1.108743 v 3.381668 c 0,0 -0.27718,2.882731 -3.76972,2.882731 z"
         style="font-style:normal;font-variant:normal;font-weight:normal;font-stretch:normal;font-size:25.3158px;font-family:'MADE Waffle Soft';-inkscape-font-specification:'MADE Waffle Soft, Normal';font-variant-ligatures:normal;font-variant-caps:normal;font-variant-numeric:normal;font-variant-east-asian:normal;fill:#ffffff;stroke:#ffffff;stroke-width:1.09491;stroke-miterlimit:4;stroke-dasharray:none;stroke-opacity:1"
         id="path14" />
      <path
         d="m 148.57926,83.320983 h -10.145 c 0,0 8.81453,-10.97656 9.86783,-12.695113 0.66525,-1.164181 0.94242,-1.718553 0.94242,-2.605546 v -3.270795 c 0,-0.720682 -0.6098,-1.330492 -1.38592,-1.330492 h -22.23032 c -0.77612,0 -1.38592,0.60981 -1.38592,1.330492 v 6.818774 c 0,0.77612 0.6098,1.385929 1.38592,1.385929 h 8.75908 c 0,0 -10.20044,12.750551 -10.53306,13.249485 -0.55437,0.720682 -0.83156,1.55224 -0.83156,2.383797 v 2.882734 c 0,0.77612 0.6098,1.38593 1.38594,1.38593 h 24.17059 c 0.77614,0 1.38594,-0.60981 1.38594,-1.38593 v -6.763336 c 0,-0.77612 -0.6098,-1.385929 -1.38594,-1.385929 z"
         style="font-style:normal;font-variant:normal;font-weight:normal;font-stretch:normal;font-size:25.3158px;font-family:'MADE Waffle Soft';-inkscape-font-specification:'MADE Waffle Soft, Normal';font-variant-ligatures:normal;font-variant-caps:normal;font-variant-numeric:normal;font-variant-east-asian:normal;fill:#ffffff;stroke:#ffffff;stroke-width:1.09491;stroke-miterlimit:4;stroke-dasharray:none;stroke-opacity:1"
         id="path16" />
      <path
         d="m 183.89266,63.419037 h -8.14925 c -0.77612,0 -1.38594,0.60981 -1.38594,1.330492 0,0 0,14.746289 0,16.187656 0,3.104482 -2.43923,3.93604 -3.93604,3.93604 -1.49679,0 -3.99146,-0.831558 -3.99146,-3.93604 V 64.749529 c 0,-0.720682 -0.60982,-1.330492 -1.33049,-1.330492 h -8.20471 c -0.72069,0 -1.38594,0.60981 -1.38594,1.330492 v 18.127957 c 0,6.818772 3.04905,10.643939 10.42219,10.643939 3.32623,0 7.20684,-1.829428 8.42645,-3.547981 v 1.496804 c 0,0.77612 0.60982,1.38593 1.38594,1.38593 h 8.14925 c 0.77612,0 1.38594,-0.60981 1.38594,-1.38593 V 64.749529 c 0,-0.720682 -0.60982,-1.330492 -1.38594,-1.330492 z"
         style="font-style:normal;font-variant:normal;font-weight:normal;font-stretch:normal;font-size:25.3158px;font-family:'MADE Waffle Soft';-inkscape-font-specification:'MADE Waffle Soft, Normal';font-variant-ligatures:normal;font-variant-caps:normal;font-variant-numeric:normal;font-variant-east-asian:normal;fill:#ffffff;stroke:#ffffff;stroke-width:1.09491;stroke-miterlimit:4;stroke-dasharray:none;stroke-opacity:1"
         id="path18" />
      <path
         d="m 206.12292,75.504343 c -4.71216,-2.051177 -5.10022,-2.328363 -5.10022,-3.547981 0,-1.053306 1.16418,-1.607678 2.55012,-1.607678 1.49679,0 2.43922,0.110871 4.49039,0.554372 1.774,0.388061 2.2175,-0.332624 2.3838,-1.275054 0.1108,-0.720685 0.33263,-2.3838 0.44351,-3.658854 0.1108,-1.441367 -0.60981,-2.051177 -1.60769,-2.383798 -1.0533,-0.332624 -4.26865,-0.942433 -6.98508,-0.942433 -8.86995,0 -11.69724,4.268664 -11.97442,8.204701 -0.38806,5.987216 3.32623,8.703638 6.31983,9.812381 3.27079,1.219619 5.48827,2.272925 5.26653,3.437106 -0.27719,1.441365 -2.32835,1.55224 -3.65885,1.496802 -1.21962,0 -2.77185,-0.166317 -4.65672,-0.720682 -1.82943,-0.554372 -2.43923,0.388059 -2.60555,1.663115 -0.1662,0.886995 -0.27718,1.718553 -0.38806,3.270793 -0.1662,1.441367 0.27719,1.829426 0.94244,2.162049 0.66525,0.388062 3.10447,1.552243 8.75906,1.552243 10.03413,0 11.69726,-4.379539 12.19619,-8.426452 0.49893,-3.991477 -1.774,-7.650329 -6.37528,-9.59063 z"
         style="font-style:normal;font-variant:normal;font-weight:normal;font-stretch:normal;font-size:25.3158px;font-family:'MADE Waffle Soft';-inkscape-font-specification:'MADE Waffle Soft, Normal';font-variant-ligatures:normal;font-variant-caps:normal;font-variant-numeric:normal;font-variant-east-asian:normal;fill:#ffffff;stroke:#ffffff;stroke-width:1.09491;stroke-miterlimit:4;stroke-dasharray:none;stroke-opacity:1"
         id="path20" />
      <path
         d="m 245.76039,72.233548 c -0.77614,-6.818772 -7.31771,-9.590631 -13.85929,-9.590631 -5.76548,0 -10.42219,1.995739 -12.30706,2.993607 -0.66525,0.277186 -0.66525,1.053306 -0.49893,1.496805 0.16621,0.443496 1.77398,4.434974 2.05117,4.989346 0.22174,0.498934 0.77611,0.720682 1.38594,0.498934 1.60766,-0.665247 4.76757,-1.884864 8.09381,-1.884864 3.60342,0 4.21322,2.051174 4.26867,3.71429 -2.27293,0.11087 -6.20897,0.277185 -8.98082,0.665247 -4.26867,0.665247 -8.86996,3.714291 -8.86996,10.089566 0,7.428581 7.1514,8.315577 8.86996,8.315577 3.10447,0 6.98508,-0.997871 8.98082,-3.15992 v 1.108743 c 0,0.77612 0.6098,1.38593 1.38592,1.38593 h 3.32623 4.82305 c 0.77612,0 1.38592,-0.60981 1.38592,-1.38593 V 73.564042 c 0,-0.443499 0,-0.886996 -0.0554,-1.330494 z m -14.63543,13.859293 c -3.54798,0 -4.21322,-3.547978 -2.10661,-5.155656 1.66313,-1.330492 5.87635,-1.108743 5.87635,-1.108743 v 3.381668 c 0,0 -0.27719,2.882731 -3.76974,2.882731 z"
         style="font-style:normal;font-variant:normal;font-weight:normal;font-stretch:normal;font-size:25.3158px;font-family:'MADE Waffle Soft';-inkscape-font-specification:'MADE Waffle Soft, Normal';font-variant-ligatures:normal;font-variant-caps:normal;font-variant-numeric:normal;font-variant-east-asian:normal;fill:#ffffff;stroke:#ffffff;stroke-width:1.09491;stroke-miterlimit:4;stroke-dasharray:none;stroke-opacity:1"
         id="path22" />
      <path
         d="m 294.93307,63.419037 c -0.72069,0 -8.14926,0 -8.14926,0 -1.66313,0 -1.94032,0.498934 -2.49469,1.940301 -0.27717,0.77612 -3.49253,15.799595 -3.49253,15.799595 0,0 -3.38166,-15.522409 -3.49255,-15.799595 -0.49893,-1.441367 -0.77612,-1.940301 -2.43923,-1.940301 -1.94029,0 -4.43499,0 -4.43499,0 -1.6631,0 -1.99571,0.498934 -2.49467,1.940301 -0.1108,0.277186 -3.49253,15.799595 -3.49253,15.799595 0,0 -3.21536,-15.023475 -3.49255,-15.799595 -0.49893,-1.441367 -0.83154,-1.940301 -2.49467,-1.940301 0,0 -7.42859,0 -8.14926,0 -0.94243,0 -1.44136,0.665247 -0.99788,1.940301 0.49895,1.330492 8.59276,25.168477 9.03627,26.11091 0.4435,0.997869 0.77612,1.38593 1.774,1.38593 h 8.64819 c 0.99788,0 1.33049,-0.388061 1.774,-1.38593 0.1108,-0.221748 2.10661,-7.539456 2.10661,-7.539456 0,0 1.94029,7.317708 2.05116,7.539456 0.44351,0.997869 0.77612,1.38593 1.774,1.38593 h 8.70364 c 0.99786,0 1.33049,-0.388061 1.71855,-1.38593 0.44348,-0.942433 8.53732,-24.780418 9.03625,-26.11091 0.4435,-1.275054 -0.0554,-1.940301 -0.99786,-1.940301 z"
         style="font-style:normal;font-variant:normal;font-weight:normal;font-stretch:normal;font-size:25.3158px;font-family:'MADE Waffle Soft';-inkscape-font-specification:'MADE Waffle Soft, Normal';font-variant-ligatures:normal;font-variant-caps:normal;font-variant-numeric:normal;font-variant-east-asian:normal;fill:#ffffff;stroke:#ffffff;stroke-width:1.09491;stroke-miterlimit:4;stroke-dasharray:none;stroke-opacity:1"
         id="path24" />
    </g>
  </g>
</svg>
