<?xml version="1.0" encoding="UTF-8" standalone="no"?>
<svg
   viewBox="0 0 460.01678 466.91333"
   version="1.1"
   id="svg10"
   sodipodi:docname="nuxtjs.svg"
   width="460.01678"
   height="466.91333"
   inkscape:version="1.1 (c68e22c387, 2021-05-23)"
   xmlns:inkscape="http://www.inkscape.org/namespaces/inkscape"
   xmlns:sodipodi="http://sodipodi.sourceforge.net/DTD/sodipodi-0.dtd"
   xmlns="http://www.w3.org/2000/svg"
   xmlns:svg="http://www.w3.org/2000/svg">
  <defs
     id="defs14" />
  <sodipodi:namedview
     id="namedview12"
     pagecolor="#ffffff"
     bordercolor="#666666"
     borderopacity="1.0"
     inkscape:pageshadow="2"
     inkscape:pageopacity="0.0"
     inkscape:pagecheckerboard="true"
     showgrid="false"
     fit-margin-top="0"
     fit-margin-left="0"
     fit-margin-right="0"
     fit-margin-bottom="0"
     inkscape:zoom="1.015"
     inkscape:cx="94.581281"
     inkscape:cy="111.82266"
     inkscape:window-width="1920"
     inkscape:window-height="1001"
     inkscape:window-x="-9"
     inkscape:window-y="-9"
     inkscape:window-maximized="1"
     inkscape:current-layer="svg10" />
  <g
     fill-rule="nonzero"
     transform="translate(31.486215,57.840879)"
     fill="none"
     id="g8">
    <path
       d="M 227.92099,83.45116 214.23209,107.55257 167.41729,25.10564 23.7037,278.17052 h 97.3037 c 0,13.31084 10.61252,24.10142 23.70371,24.10142 H 23.70371 c -8.46771,0 -16.29145,-4.59601 -20.5246,-12.05272 -4.23315,-7.4567 -4.23272,-16.64312 0.00114,-24.0994 L 146.89383,13.05492 c 4.23415,-7.45738 12.0596,-12.05138 20.5284,-12.05138 8.46878,0 16.29423,4.594 20.52839,12.05138 l 39.97037,70.39623 z"
       fill="#00c58e"
       id="path2" />
    <path
       d="M 331.6642,266.11981 241.60988,107.55257 227.92098,83.45116 214.2321,107.55257 124.18765,266.11981 c -4.23385,7.45629 -4.23428,16.64271 -0.001,24.09941 4.23314,7.4567 12.05689,12.05272 20.5246,12.05272 h 166.4 c 8.46946,0 16.29644,-4.591 20.532,-12.04837 4.23555,-7.45736 4.23606,-16.64592 10e-4,-24.10376 z m -186.9531,12.05071 83.2099,-146.51653 83.19012,146.51653 h -166.4 z"
       fill="#2f495e"
       id="path4" />
    <path
       d="m 396.04938,290.22123 c -4.23344,7.45557 -12.05656,12.0507 -20.52345,12.0507 H 311.1111 c 13.0912,0 23.7037,-10.79057 23.7037,-24.10141 h 40.66173 L 260.09877,74.98553 241.60987,107.55257 227.921,83.45116 239.57532,62.93482 c 4.23416,-7.45738 12.0596,-12.05138 20.5284,-12.05138 8.46879,0 16.29423,4.594 20.52839,12.05138 l 115.41728,203.185 c 4.23426,7.457 4.23426,16.6444 0,24.1014 z"
       fill="#108775"
       id="path6" />
  </g>
</svg>
